<?xml version="1.0" encoding="utf-8"?>
<!-- Generator: Adobe Illustrator 16.0.0, SVG Export Plug-In . SVG Version: 6.00 Build 0)  -->
<!DOCTYPE svg PUBLIC "-//W3C//DTD SVG 1.1//EN" "http://www.w3.org/Graphics/SVG/1.1/DTD/svg11.dtd">
<svg version="1.1" id="圖層_1" xmlns="http://www.w3.org/2000/svg" xmlns:xlink="http://www.w3.org/1999/xlink" x="0px" y="0px"
	 width="212.598px" height="70.866px" viewBox="0 0 212.598 70.866" enable-background="new 0 0 212.598 70.866"
	 xml:space="preserve">
<g>
	<path fill="none" stroke="#C0D963" stroke-width="2.3332" stroke-miterlimit="10" d="M7.338,28.049
		c-0.423,1.99-0.646,4.055-0.646,6.172c0,16.324,13.233,29.559,29.558,29.559s29.558-13.234,29.558-29.559L43.25,34.322"/>
	<g>
		<path fill="none" stroke="#F1E900" stroke-width="0.7777" stroke-miterlimit="10" d="M68.413,4.909"/>
		<path fill="none" stroke="#F1E900" stroke-width="0.7777" stroke-miterlimit="10" d="M68.413,4.909
			c-0.188,3.574-3.239,6.319-6.814,6.13"/>
		<path fill="none" stroke="#F1E900" stroke-width="0.7777" stroke-miterlimit="10" d="M74.543,11.723
			c-3.574-0.188-6.319-3.239-6.131-6.814"/>
		<path fill="none" stroke="#F1E900" stroke-width="0.7777" stroke-miterlimit="10" d="M61.598,11.05
			c3.574,0.189,6.318,3.241,6.129,6.815"/>
		<path fill="none" stroke="#F1E900" stroke-width="0.7777" stroke-miterlimit="10" d="M67.727,17.865
			c0.189-3.574,3.24-6.319,6.815-6.13"/>
	</g>
	<path fill="none" stroke="#726C00" stroke-width="0.7181" stroke-miterlimit="10" d="M16.78,49.691c0,0,1.574-2.809,6.236-2.473
		s5.186,2.473,5.186,2.473s2.318-2.273,6.781-2.473s6.78,2.473,6.78,2.473s2.517-2.408,7.179-2.473
		c4.662-0.066,6.781,2.473,6.781,2.473"/>
	<g>
		<path fill="#32AE46" d="M33.963,42.471c-0.666-7.709-6.108-19.295-15.314-20.609v-1.561c8.258-0.318,16.344,13.307,15.975,22.092
			L33.963,42.471z"/>
		<path fill="#32AE46" d="M19.472,21.07c0,0.428-0.347,0.773-0.774,0.773l0,0c-0.428,0-0.775-0.346-0.775-0.773l0,0
			c0-0.428,0.348-0.775,0.775-0.775l0,0C19.125,20.295,19.472,20.643,19.472,21.07L19.472,21.07z"/>
	</g>
	<g>
		<path fill="#32AE46" d="M34.978,42.422c-0.343-8.648,7.46-24.545,17.063-24.932l-0.072-1.834
			c-9.723,0.002-18.607,16.395-17.771,26.707L34.978,42.422z"/>
		<path fill="#32AE46" d="M51.037,16.598c0.02,0.504,0.443,0.895,0.946,0.875l0,0c0.504-0.02,0.895-0.443,0.875-0.945l0,0
			c-0.02-0.504-0.443-0.896-0.945-0.877l0,0C51.409,15.67,51.017,16.094,51.037,16.598L51.037,16.598z"/>
	</g>
</g>
<g>
	<path fill="#39A545" d="M84.944,56.516v-2.412h6.23v5.703c-0.605,0.586-1.483,1.102-2.633,1.547c-1.148,0.447-2.313,0.67-3.49,0.67
		c-1.498,0-2.803-0.314-3.916-0.943c-1.113-0.627-1.95-1.525-2.51-2.695c-0.561-1.168-0.84-2.439-0.84-3.813
		c0-1.49,0.313-2.816,0.938-3.975s1.539-2.047,2.744-2.666c0.918-0.475,2.061-0.713,3.428-0.713c1.777,0,3.165,0.373,4.164,1.117
		c1,0.746,1.643,1.777,1.93,3.092l-2.871,0.537c-0.202-0.703-0.582-1.258-1.139-1.666c-0.557-0.406-1.251-0.609-2.084-0.609
		c-1.264,0-2.268,0.4-3.014,1.201c-0.745,0.801-1.117,1.988-1.117,3.564c0,1.699,0.377,2.973,1.133,3.822
		c0.755,0.85,1.744,1.275,2.969,1.275c0.605,0,1.212-0.119,1.82-0.357c0.609-0.236,1.132-0.525,1.568-0.863v-1.816H84.944z"/>
	<path fill="#39A545" d="M96.647,61.779h-2.744V51.408h2.549v1.475c0.437-0.697,0.829-1.156,1.178-1.377
		c0.348-0.221,0.743-0.332,1.186-0.332c0.625,0,1.228,0.172,1.807,0.518l-0.85,2.393c-0.462-0.299-0.892-0.449-1.289-0.449
		c-0.384,0-0.709,0.105-0.977,0.316c-0.267,0.213-0.477,0.596-0.629,1.148c-0.153,0.553-0.23,1.713-0.23,3.477V61.779z"/>
	<path fill="#39A545" d="M108.009,58.479l2.734,0.459c-0.352,1.002-0.907,1.766-1.665,2.289c-0.758,0.525-1.707,0.787-2.847,0.787
		c-1.804,0-3.138-0.59-4.004-1.768c-0.684-0.943-1.025-2.135-1.025-3.574c0-1.719,0.449-3.064,1.348-4.039
		c0.898-0.973,2.034-1.459,3.408-1.459c1.543,0,2.761,0.51,3.652,1.527c0.892,1.02,1.318,2.58,1.279,4.684h-6.875
		c0.02,0.814,0.241,1.447,0.664,1.898c0.423,0.453,0.95,0.68,1.582,0.68c0.43,0,0.791-0.117,1.084-0.352S107.86,59,108.009,58.479z
		 M108.166,55.705c-0.02-0.795-0.225-1.398-0.615-1.813c-0.391-0.412-0.866-0.619-1.426-0.619c-0.599,0-1.094,0.219-1.484,0.654
		s-0.583,1.029-0.576,1.777H108.166z"/>
	<path fill="#39A545" d="M119.333,58.479l2.734,0.459c-0.352,1.002-0.906,1.766-1.665,2.289c-0.759,0.525-1.708,0.787-2.847,0.787
		c-1.803,0-3.139-0.59-4.004-1.768c-0.684-0.943-1.025-2.135-1.025-3.574c0-1.719,0.449-3.064,1.348-4.039
		c0.898-0.973,2.035-1.459,3.408-1.459c1.543,0,2.76,0.51,3.652,1.527c0.893,1.02,1.318,2.58,1.279,4.684h-6.875
		c0.02,0.814,0.24,1.447,0.664,1.898c0.424,0.453,0.951,0.68,1.582,0.68c0.43,0,0.791-0.117,1.084-0.352S119.182,59,119.333,58.479z
		 M119.489,55.705c-0.02-0.795-0.225-1.398-0.615-1.813c-0.391-0.412-0.865-0.619-1.426-0.619c-0.6,0-1.094,0.219-1.484,0.654
		s-0.582,1.029-0.576,1.777H119.489z"/>
	<path fill="#39A545" d="M134.083,61.779h-2.744v-5.293c0-1.119-0.059-1.844-0.176-2.174c-0.117-0.328-0.307-0.584-0.57-0.766
		s-0.582-0.273-0.953-0.273c-0.475,0-0.901,0.131-1.279,0.391c-0.377,0.26-0.636,0.605-0.775,1.035
		c-0.141,0.43-0.211,1.225-0.211,2.383v4.697h-2.744V51.408h2.549v1.523c0.905-1.172,2.045-1.758,3.418-1.758
		c0.605,0,1.159,0.109,1.66,0.326c0.502,0.219,0.881,0.498,1.139,0.836c0.257,0.338,0.436,0.723,0.537,1.152
		c0.101,0.43,0.15,1.045,0.15,1.846V61.779z"/>
	<path fill="#39A545" d="M152.002,56.516l2.803,0.889c-0.43,1.563-1.144,2.723-2.143,3.48c-1,0.76-2.268,1.139-3.805,1.139
		c-1.9,0-3.463-0.65-4.688-1.949c-1.224-1.299-1.836-3.074-1.836-5.326c0-2.383,0.615-4.234,1.846-5.553s2.849-1.977,4.854-1.977
		c1.752,0,3.174,0.518,4.268,1.553c0.651,0.611,1.14,1.49,1.465,2.637l-2.861,0.684c-0.169-0.742-0.521-1.328-1.059-1.758
		s-1.19-0.645-1.959-0.645c-1.061,0-1.922,0.381-2.582,1.143c-0.661,0.762-0.992,1.996-0.992,3.701c0,1.811,0.326,3.1,0.977,3.867
		c0.651,0.768,1.498,1.152,2.539,1.152c0.769,0,1.43-0.244,1.982-0.732C151.365,58.332,151.762,57.564,152.002,56.516z"/>
	<path fill="#39A545" d="M159.517,54.572l-2.49-0.449c0.28-1.002,0.762-1.744,1.445-2.227s1.699-0.723,3.047-0.723
		c1.224,0,2.136,0.145,2.734,0.434c0.599,0.291,1.021,0.658,1.265,1.104c0.244,0.447,0.366,1.266,0.366,2.457l-0.029,3.203
		c0,0.912,0.044,1.584,0.132,2.016c0.088,0.434,0.252,0.898,0.493,1.393h-2.715c-0.071-0.182-0.159-0.453-0.264-0.811
		c-0.046-0.162-0.078-0.27-0.098-0.322c-0.469,0.455-0.97,0.797-1.504,1.025s-1.104,0.342-1.709,0.342
		c-1.067,0-1.909-0.289-2.524-0.869s-0.923-1.313-0.923-2.197c0-0.586,0.14-1.109,0.42-1.568s0.673-0.811,1.177-1.055
		s1.232-0.457,2.183-0.639c1.282-0.24,2.171-0.465,2.666-0.674v-0.273c0-0.527-0.13-0.904-0.391-1.129s-0.752-0.336-1.475-0.336
		c-0.488,0-0.869,0.096-1.143,0.287C159.908,53.754,159.686,54.09,159.517,54.572z M163.189,56.799
		c-0.352,0.117-0.908,0.258-1.67,0.42s-1.26,0.322-1.494,0.479c-0.358,0.254-0.537,0.576-0.537,0.967
		c0,0.385,0.144,0.717,0.43,0.996s0.651,0.42,1.094,0.42c0.495,0,0.967-0.162,1.416-0.488c0.332-0.248,0.55-0.551,0.654-0.908
		c0.071-0.234,0.107-0.68,0.107-1.338V56.799z"/>
	<path fill="#39A545" d="M171.417,61.779h-2.744V51.408h2.549v1.475c0.436-0.697,0.828-1.156,1.177-1.377s0.743-0.332,1.187-0.332
		c0.625,0,1.227,0.172,1.807,0.518l-0.85,2.393c-0.463-0.299-0.893-0.449-1.289-0.449c-0.385,0-0.709,0.105-0.977,0.316
		c-0.268,0.213-0.477,0.596-0.63,1.148s-0.229,1.713-0.229,3.477V61.779z"/>
	<path fill="#39A545" d="M179.399,61.779h-2.744V51.408h2.549v1.475c0.437-0.697,0.829-1.156,1.178-1.377
		c0.348-0.221,0.743-0.332,1.186-0.332c0.625,0,1.228,0.172,1.807,0.518l-0.85,2.393c-0.462-0.299-0.892-0.449-1.289-0.449
		c-0.384,0-0.709,0.105-0.977,0.316c-0.267,0.213-0.477,0.596-0.629,1.148c-0.153,0.553-0.23,1.713-0.23,3.477V61.779z"/>
	<path fill="#39A545" d="M184.756,50.002v-2.539h2.744v2.539H184.756z M184.756,61.779V51.408h2.744v10.371H184.756z"/>
	<path fill="#39A545" d="M196.518,58.479l2.734,0.459c-0.352,1.002-0.906,1.766-1.664,2.289c-0.759,0.525-1.708,0.787-2.848,0.787
		c-1.803,0-3.138-0.59-4.004-1.768c-0.684-0.943-1.025-2.135-1.025-3.574c0-1.719,0.449-3.064,1.348-4.039
		c0.898-0.973,2.035-1.459,3.408-1.459c1.543,0,2.761,0.51,3.652,1.527c0.893,1.02,1.318,2.58,1.279,4.684h-6.875
		c0.02,0.814,0.241,1.447,0.664,1.898c0.424,0.453,0.951,0.68,1.582,0.68c0.43,0,0.791-0.117,1.084-0.352S196.369,59,196.518,58.479
		z M196.674,55.705c-0.02-0.795-0.225-1.398-0.615-1.813c-0.391-0.412-0.865-0.619-1.426-0.619c-0.599,0-1.094,0.219-1.484,0.654
		s-0.582,1.029-0.576,1.777H196.674z"/>
	<path fill="#39A545" d="M204.462,61.779h-2.744V51.408h2.549v1.475c0.437-0.697,0.829-1.156,1.177-1.377s0.744-0.332,1.187-0.332
		c0.625,0,1.228,0.172,1.807,0.518l-0.85,2.393c-0.462-0.299-0.892-0.449-1.289-0.449c-0.384,0-0.71,0.105-0.977,0.316
		c-0.267,0.213-0.478,0.596-0.63,1.148s-0.229,1.713-0.229,3.477V61.779z"/>
</g>
</svg>
