<?xml version="1.0" encoding="utf-8"?>
<!-- Generator: Adobe Illustrator 16.0.0, SVG Export Plug-In . SVG Version: 6.00 Build 0)  -->
<!DOCTYPE svg PUBLIC "-//W3C//DTD SVG 1.1//EN" "http://www.w3.org/Graphics/SVG/1.1/DTD/svg11.dtd">
<svg version="1.1" id="圖層_1" xmlns="http://www.w3.org/2000/svg" xmlns:xlink="http://www.w3.org/1999/xlink" x="0px" y="0px"
	 width="283.464px" height="400.897px" viewBox="0 0 283.464 400.897" enable-background="new 0 0 283.464 400.897"
	 xml:space="preserve">
<g>
	<g>
		<path fill="#39A545" d="M38.37,354.55v-4.083h10.548v9.656c-1.024,0.99-2.51,1.864-4.456,2.618
			c-1.945,0.756-3.915,1.134-5.91,1.134c-2.536,0-4.745-0.532-6.63-1.595c-1.884-1.064-3.3-2.584-4.248-4.564
			c-0.948-1.979-1.422-4.129-1.422-6.455c0-2.524,0.529-4.768,1.587-6.729c1.058-1.963,2.606-3.466,4.646-4.514
			c1.554-0.804,3.488-1.208,5.803-1.208c3.008,0,5.358,0.631,7.051,1.894c1.691,1.262,2.78,3.007,3.265,5.232l-4.86,0.91
			c-0.342-1.19-0.984-2.13-1.926-2.819c-0.943-0.688-2.119-1.033-3.529-1.033c-2.139,0-3.839,0.678-5.101,2.034
			c-1.262,1.355-1.893,3.366-1.893,6.035c0,2.876,0.639,5.033,1.918,6.471c1.278,1.438,2.953,2.157,5.026,2.157
			c1.025,0,2.053-0.199,3.083-0.603c1.03-0.403,1.915-0.89,2.653-1.463v-3.076H38.37z"/>
		<path fill="#39A545" d="M58.184,363.461h-4.646v-17.558h4.315v2.498c0.738-1.18,1.402-1.957,1.992-2.332
			c0.59-0.375,1.259-0.563,2.009-0.563c1.058,0,2.077,0.292,3.059,0.877l-1.438,4.051c-0.783-0.507-1.511-0.761-2.182-0.761
			c-0.651,0-1.202,0.179-1.654,0.538c-0.452,0.356-0.807,1.005-1.066,1.941c-0.259,0.938-0.389,2.899-0.389,5.886V363.461z"/>
		<path fill="#39A545" d="M77.419,357.875l4.629,0.776c-0.595,1.697-1.535,2.989-2.819,3.878c-1.283,0.886-2.89,1.33-4.819,1.33
			c-3.052,0-5.312-0.998-6.777-2.993c-1.158-1.597-1.736-3.615-1.736-6.051c0-2.909,0.76-5.188,2.281-6.834
			c1.521-1.649,3.444-2.474,5.769-2.474c2.613,0,4.673,0.862,6.184,2.587c1.51,1.726,2.232,4.368,2.166,7.928H70.658
			c0.033,1.379,0.407,2.45,1.124,3.217c0.716,0.766,1.61,1.148,2.679,1.148c0.727,0,1.339-0.199,1.835-0.596
			C76.791,359.394,77.166,358.756,77.419,357.875z M77.684,353.179c-0.033-1.346-0.38-2.366-1.041-3.067
			c-0.662-0.7-1.466-1.05-2.414-1.05c-1.015,0-1.852,0.37-2.513,1.108c-0.661,0.737-0.987,1.741-0.975,3.009H77.684z"/>
		<path fill="#39A545" d="M96.588,357.875l4.629,0.776c-0.595,1.697-1.535,2.989-2.819,3.878c-1.283,0.886-2.89,1.33-4.819,1.33
			c-3.052,0-5.312-0.998-6.778-2.993c-1.158-1.597-1.735-3.615-1.735-6.051c0-2.909,0.76-5.188,2.281-6.834
			c1.521-1.649,3.444-2.474,5.77-2.474c2.613,0,4.673,0.862,6.184,2.587c1.51,1.726,2.232,4.368,2.166,7.928H89.827
			c0.033,1.379,0.407,2.45,1.124,3.217c0.716,0.766,1.61,1.148,2.679,1.148c0.727,0,1.339-0.199,1.835-0.596
			C95.96,359.394,96.334,358.756,96.588,357.875z M96.852,353.179c-0.033-1.346-0.38-2.366-1.041-3.067
			c-0.662-0.7-1.466-1.05-2.414-1.05c-1.015,0-1.853,0.37-2.513,1.108c-0.662,0.737-0.987,1.741-0.975,3.009H96.852z"/>
		<path fill="#39A545" d="M121.56,363.461h-4.645v-8.96c0-1.895-0.099-3.123-0.298-3.68c-0.198-0.556-0.52-0.987-0.967-1.297
			c-0.447-0.309-0.984-0.463-1.612-0.463c-0.805,0-1.526,0.222-2.166,0.662s-1.077,1.023-1.314,1.752
			c-0.237,0.728-0.355,2.072-0.355,4.033v7.952h-4.646v-17.558h4.315v2.58c1.532-1.984,3.46-2.977,5.786-2.977
			c1.025,0,1.961,0.186,2.811,0.555c0.849,0.369,1.49,0.841,1.926,1.412c0.435,0.574,0.738,1.226,0.909,1.951
			c0.171,0.729,0.256,1.771,0.256,3.125V363.461z"/>
		<path fill="#39A545" d="M151.896,354.55l4.744,1.506c-0.727,2.645-1.938,4.61-3.629,5.893c-1.691,1.285-3.838,1.927-6.438,1.927
			c-3.219,0-5.864-1.1-7.936-3.298c-2.073-2.199-3.108-5.207-3.108-9.019c0-4.033,1.042-7.168,3.125-9.399
			c2.083-2.231,4.822-3.349,8.216-3.349c2.965,0,5.374,0.877,7.225,2.629c1.103,1.038,1.929,2.524,2.48,4.464l-4.844,1.158
			c-0.288-1.257-0.885-2.249-1.795-2.976c-0.908-0.728-2.015-1.092-3.314-1.092c-1.797,0-3.254,0.645-4.373,1.935
			c-1.118,1.29-1.678,3.378-1.678,6.267c0,3.063,0.551,5.245,1.653,6.547c1.103,1.299,2.535,1.949,4.299,1.949
			c1.3,0,2.419-0.413,3.356-1.239C150.816,357.626,151.487,356.325,151.896,354.55z"/>
		<path fill="#39A545" d="M164.618,351.261l-4.218-0.76c0.476-1.698,1.291-2.955,2.447-3.77c1.158-0.817,2.878-1.225,5.158-1.225
			c2.073,0,3.615,0.246,4.631,0.736c1.014,0.491,1.727,1.113,2.14,1.869c0.414,0.754,0.621,2.14,0.621,4.157l-0.051,5.422
			c0,1.544,0.075,2.682,0.223,3.414c0.15,0.734,0.428,1.518,0.836,2.355h-4.597c-0.121-0.309-0.27-0.766-0.446-1.372
			c-0.076-0.275-0.132-0.456-0.164-0.545c-0.794,0.771-1.643,1.352-2.547,1.736c-0.903,0.385-1.868,0.578-2.894,0.578
			c-1.807,0-3.231-0.49-4.273-1.472s-1.562-2.22-1.562-3.719c0-0.993,0.236-1.877,0.71-2.654s1.139-1.372,1.993-1.787
			c0.854-0.411,2.086-0.771,3.694-1.081c2.171-0.407,3.677-0.788,4.514-1.141v-0.464c0-0.893-0.221-1.529-0.661-1.909
			c-0.441-0.38-1.273-0.57-2.497-0.57c-0.826,0-1.472,0.162-1.935,0.489C165.278,349.875,164.903,350.446,164.618,351.261z
			 M170.833,355.03c-0.597,0.199-1.538,0.438-2.828,0.712c-1.288,0.275-2.132,0.545-2.529,0.81
			c-0.604,0.431-0.909,0.976-0.909,1.638c0,0.649,0.242,1.213,0.729,1.686c0.483,0.474,1.102,0.71,1.851,0.71
			c0.838,0,1.636-0.274,2.396-0.826c0.562-0.418,0.932-0.931,1.107-1.538c0.122-0.396,0.183-1.15,0.183-2.265V355.03z"/>
		<path fill="#39A545" d="M184.761,363.461h-4.646v-17.558h4.314v2.498c0.738-1.18,1.403-1.957,1.992-2.332
			c0.591-0.375,1.259-0.563,2.01-0.563c1.058,0,2.077,0.292,3.058,0.877l-1.438,4.051c-0.782-0.507-1.511-0.761-2.184-0.761
			c-0.649,0-1.201,0.179-1.652,0.538c-0.452,0.356-0.808,1.005-1.065,1.941c-0.261,0.938-0.39,2.899-0.39,5.886V363.461z"/>
		<path fill="#39A545" d="M198.276,363.461h-4.646v-17.558h4.315v2.498c0.739-1.18,1.403-1.957,1.992-2.332s1.26-0.563,2.008-0.563
			c1.06,0,2.077,0.292,3.059,0.877l-1.438,4.051c-0.782-0.507-1.511-0.761-2.181-0.761c-0.651,0-1.202,0.179-1.654,0.538
			c-0.452,0.356-0.808,1.005-1.066,1.941c-0.259,0.938-0.389,2.899-0.389,5.886V363.461z"/>
		<path fill="#39A545" d="M207.343,343.523v-4.297h4.646v4.297H207.343z M207.343,363.461v-17.558h4.646v17.558H207.343z"/>
		<path fill="#39A545" d="M227.256,357.875l4.629,0.776c-0.596,1.697-1.535,2.989-2.818,3.878c-1.283,0.886-2.891,1.33-4.82,1.33
			c-3.051,0-5.311-0.998-6.777-2.993c-1.158-1.597-1.734-3.615-1.734-6.051c0-2.909,0.76-5.188,2.28-6.834
			c1.521-1.649,3.444-2.474,5.769-2.474c2.613,0,4.674,0.862,6.184,2.587c1.511,1.726,2.232,4.368,2.167,7.928h-11.64
			c0.033,1.379,0.409,2.45,1.124,3.217c0.716,0.766,1.609,1.148,2.679,1.148c0.728,0,1.338-0.199,1.835-0.596
			C226.628,359.394,227.002,358.756,227.256,357.875z M227.52,353.179c-0.032-1.346-0.379-2.366-1.039-3.067
			c-0.663-0.7-1.467-1.05-2.416-1.05c-1.014,0-1.851,0.37-2.513,1.108c-0.66,0.737-0.985,1.741-0.974,3.009H227.52z"/>
		<path fill="#39A545" d="M240.705,363.461h-4.645v-17.558h4.314v2.498c0.738-1.18,1.402-1.957,1.992-2.332s1.259-0.563,2.009-0.563
			c1.058,0,2.077,0.292,3.06,0.877l-1.439,4.051c-0.782-0.507-1.511-0.761-2.183-0.761c-0.649,0-1.201,0.179-1.653,0.538
			c-0.451,0.356-0.807,1.005-1.065,1.941c-0.261,0.938-0.39,2.899-0.39,5.886V363.461z"/>
	</g>
	<g>
		<path fill="none" stroke="#C0D963" stroke-width="7.9589" stroke-miterlimit="10" d="M35.712,120.307
			c-1.442,6.792-2.202,13.836-2.202,21.059c0,55.683,45.141,100.826,100.826,100.826s100.826-45.143,100.826-100.826l-76.95,0.347"
			/>
		<g>
			<path fill="none" stroke="#F1E900" stroke-width="2.653" stroke-miterlimit="10" d="M244.049,41.375"/>
			<path fill="none" stroke="#F1E900" stroke-width="2.653" stroke-miterlimit="10" d="M244.049,41.375
				c-0.645,12.193-11.052,21.554-23.246,20.909"/>
			<path fill="none" stroke="#F1E900" stroke-width="2.653" stroke-miterlimit="10" d="M264.959,64.62
				c-12.193-0.645-21.555-11.052-20.91-23.245"/>
			<path fill="none" stroke="#F1E900" stroke-width="2.653" stroke-miterlimit="10" d="M220.8,62.325
				c12.195,0.644,21.556,11.052,20.91,23.244"/>
			<path fill="none" stroke="#F1E900" stroke-width="2.653" stroke-miterlimit="10" d="M241.71,85.569
				c0.646-12.192,11.053-21.553,23.247-20.909"/>
		</g>
		<path fill="none" stroke="#726C00" stroke-width="2.4497" stroke-miterlimit="10" d="M67.917,194.136c0,0,5.375-9.58,21.277-8.436
			c15.903,1.145,17.688,8.436,17.688,8.436s7.907-7.758,23.13-8.436c15.222-0.678,23.129,8.436,23.129,8.436
			s8.587-8.213,24.489-8.436c15.904-0.223,23.131,8.436,23.131,8.436"/>
		<g>
			<path fill="#32AE46" d="M126.534,169.503c-2.27-26.293-20.836-65.816-52.24-70.299v-5.326
				c28.167-1.088,55.751,45.395,54.494,75.362L126.534,169.503z"/>
			<path fill="#32AE46" d="M77.104,96.501c0,1.46-1.184,2.643-2.643,2.643l0,0c-1.46,0-2.643-1.183-2.643-2.643l0,0
				c0-1.459,1.183-2.643,2.643-2.643l0,0C75.919,93.859,77.104,95.042,77.104,96.501L77.104,96.501z"/>
		</g>
		<g>
			<path fill="#32AE46" d="M129.995,169.341c-1.166-29.507,25.445-83.728,58.206-85.048l-0.244-6.261
				c-33.166,0.008-63.473,55.926-60.624,91.104L129.995,169.341z"/>
			<path fill="#32AE46" d="M184.775,81.246c0.066,1.716,1.513,3.053,3.229,2.987l0,0c1.717-0.067,3.053-1.514,2.986-3.23l0,0
				c-0.067-1.715-1.513-3.052-3.228-2.985l0,0C186.045,78.085,184.707,79.529,184.775,81.246L184.775,81.246z"/>
		</g>
	</g>
</g>
</svg>
